# Blender 4.0.2
# www.blender.org
mtllib pepeModel.mtl
o head
v -0.500000 -0.700000 0.400000
v -0.566934 0.000000 0.466934
v -0.500000 -0.700000 -0.500000
v -0.566934 0.100000 -0.566934
v 0.500000 -0.700000 0.400000
v 0.566934 0.000000 0.466934
v 0.500000 -0.700000 -0.500000
v 0.566934 0.100000 -0.566934
v 0.000000 -0.700000 -0.700000
v 0.000000 0.100000 -0.809906
v 0.000000 -0.700000 0.600000
v 0.000000 0.150000 0.709906
v -0.700000 -0.700000 0.200000
v -0.809906 0.000000 0.200000
v 0.700000 -0.700000 0.200000
v 0.809906 0.000000 0.200000
v 0.000000 0.300000 0.300000
v 0.000000 -0.700000 0.200000
v -0.700000 -0.533333 0.600000
v -0.700000 -0.166667 0.600000
v -0.700000 -0.166667 -0.700000
v -0.700000 -0.533333 -0.700000
v 0.700000 -0.166667 -0.700000
v 0.700000 -0.533333 -0.700000
v 0.700000 -0.166667 0.600000
v 0.700000 -0.533333 0.600000
v 0.000000 -0.166667 0.900000
v 0.000000 -0.533333 0.900000
v 0.000000 -0.166667 -1.000000
v 0.000000 -0.533333 -1.000000
v 1.000000 -0.166667 0.200000
v 1.000000 -0.533333 0.200000
v -1.000000 -0.166667 0.200000
v -1.000000 -0.533333 0.200000
v -0.600000 0.600000 0.000000
v -0.400000 0.700000 -0.500000
v 0.000000 0.700000 -0.600000
v 0.400000 0.700000 -0.500000
v 0.600000 0.600000 0.000000
v 0.000000 0.700000 0.200000
v -0.500000 -0.500000 0.800000
v -0.500000 -0.200000 0.800000
v 0.500000 -0.200000 0.800000
v 0.500000 -0.500000 0.800000
v 0.000000 -0.200000 0.970000
v 0.000000 -0.500000 0.970000
v -0.250000 -0.700000 -0.600000
v -0.283467 0.100000 0.588420
v -0.283467 0.100000 -0.688420
v -0.250000 -0.700000 0.500000
v -0.350000 -0.700000 0.200000
v -0.404953 0.100000 0.300000
v -0.350000 -0.533333 -0.850000
v -0.350000 -0.166667 -0.850000
v -0.350000 -0.533333 0.750000
v -0.350000 -0.166667 0.750000
v -0.200000 0.800000 -0.550000
v -0.300000 0.800000 0.100000
v -0.250000 -0.500000 0.900000
v -0.250000 -0.200000 0.900000
v 0.283467 0.100000 -0.688420
v 0.250000 -0.700000 0.500000
v 0.250000 -0.700000 -0.600000
v 0.283467 0.100000 0.588420
v 0.404953 0.100000 0.300000
v 0.350000 -0.700000 0.200000
v 0.350000 -0.533333 0.750000
v 0.350000 -0.166667 0.750000
v 0.350000 -0.533333 -0.850000
v 0.350000 -0.166667 -0.850000
v 0.200000 0.800000 -0.550000
v 0.300000 0.800000 0.100000
v 0.250000 -0.500000 0.900000
v 0.250000 -0.200000 0.900000
v 0.000000 0.450000 0.300000
v -0.704953 0.450000 0.200000
v -0.483467 0.450000 -0.533467
v 0.000000 0.450000 -0.704953
v 0.704953 0.450000 0.200000
v 0.483467 0.450000 -0.533467
v -0.241734 0.500000 -0.619210
v -0.352477 0.420000 0.310000
v 0.241734 0.500000 -0.619210
v 0.352477 0.420000 0.310000
vn -0.7525 0.6250 -0.2076
vn 0.3295 0.5481 -0.7688
vn 0.5473 0.7085 0.4456
vn -0.3871 0.6337 0.6698
vn -0.0000 -1.0000 -0.0000
vn -0.3370 0.9151 0.2212
vn 0.3696 0.8932 0.2562
vn 0.3725 0.5099 0.7754
vn -0.3295 0.5481 -0.7688
vn -0.9074 0.3088 -0.2850
vn -0.0753 0.4453 0.8922
vn 0.7525 0.6250 -0.2076
vn -0.5473 0.7085 0.4456
vn -0.4191 -0.8381 0.3492
vn -0.8000 -0.0000 0.6000
vn 0.5035 -0.8496 -0.1573
vn 0.9487 -0.0000 -0.3162
vn -0.2004 -0.8536 -0.4809
vn -0.3939 -0.0000 -0.9191
vn 0.2004 -0.8536 0.4809
vn 0.1175 -0.9522 0.2821
vn -0.2046 -0.8468 0.4909
vn -0.1243 -0.9325 0.3391
vn 0.4191 -0.8381 0.3492
vn 0.8000 -0.0000 0.6000
vn 0.2046 -0.8468 -0.4909
vn 0.3939 -0.0000 -0.9191
vn -0.5035 -0.8496 -0.1573
vn -0.9487 -0.0000 -0.3162
vn -0.3691 0.9291 0.0255
vn -0.5093 0.8586 -0.0582
vn -0.3610 0.2499 -0.8985
vn 0.3817 0.6338 0.6728
vn 0.1818 0.3094 -0.9334
vn 0.9074 0.3088 -0.2850
vn 0.2696 -0.0000 0.9630
vn -0.3714 -0.0000 0.9285
vn 0.7071 -0.0000 0.7071
vn -0.1175 0.9522 0.2821
vn -0.7071 -0.0000 0.7071
vn 0.1243 0.9325 0.3391
vn -0.1243 0.9325 0.3391
vn -0.2696 -0.0000 0.9630
vn -0.1818 0.3094 -0.9334
vn 0.3691 0.9291 0.0255
vn -0.1175 -0.9522 0.2821
vn -0.2004 -0.8536 0.4809
vn -0.2046 -0.8468 -0.4909
vn -0.3817 0.6338 0.6728
vn -0.3696 0.8932 0.2562
vn -0.3725 0.5099 0.7754
vn 0.1175 0.9522 0.2821
vn 0.3714 -0.0000 0.9285
vn 0.3610 0.2499 -0.8985
vn 0.0753 0.4453 0.8922
vn 0.5093 0.8586 -0.0582
vn 0.2004 -0.8536 -0.4809
vn 0.1243 -0.9325 0.3391
vn 0.2046 -0.8468 0.4909
vn 0.3871 0.6337 0.6698
vn 0.3370 0.9151 0.2212
vn -0.0203 -0.0235 0.9995
vn 0.3759 0.1870 -0.9076
vn -0.2706 0.0428 0.9617
vn -0.3381 0.2307 -0.9124
vn 0.9336 0.2313 -0.2736
vn 0.3381 0.2307 -0.9124
vn 0.2706 0.0428 0.9617
vn -0.3759 0.1870 -0.9076
vn 0.0203 -0.0235 0.9995
vn -0.9336 0.2313 -0.2736
vt 0.447020 0.762523
vt 0.441934 0.794115
vt 0.340763 0.811242
vt 0.327332 0.772176
vt 0.543211 0.577408
vt 0.540373 0.537757
vt 0.580715 0.534881
vt 0.591573 0.576854
vt 0.088952 0.730003
vt 0.079489 0.698281
vt 0.111555 0.663502
vt 0.136499 0.684994
vt 0.166036 0.544300
vt 0.126641 0.553701
vt 0.125321 0.512698
vt 0.153744 0.496077
vt 0.302266 0.529705
vt 0.302448 0.486647
vt 0.327156 0.510938
vt 0.339943 0.542107
vt 0.096258 0.528729
vt 0.100081 0.472688
vt 0.085875 0.642474
vt 0.079489 0.584545
vt 0.131622 0.589304
vt 0.120277 0.623415
vt 0.302266 0.617307
vt 0.302221 0.573506
vt 0.352338 0.573506
vt 0.339943 0.604905
vt 0.157319 0.639794
vt 0.175271 0.593288
vt 0.457693 0.577759
vt 0.460732 0.537716
vt 0.500810 0.541791
vt 0.501289 0.580342
vt 0.200704 0.605624
vt 0.187812 0.573506
vt 0.343788 0.856880
vt 0.440669 0.852587
vt 0.413497 0.873549
vt 0.346254 0.890418
vt 0.054353 0.935829
vt 0.058161 0.891429
vt 0.092442 0.891429
vt 0.109259 0.930239
vt 0.200704 0.541387
vt 0.213943 0.509410
vt 0.307415 0.772176
vt 0.293984 0.811242
vt 0.192813 0.794115
vt 0.187727 0.762523
vt 0.115132 0.443204
vt 0.327156 0.636073
vt 0.356800 0.665826
vt 0.303962 0.703808
vt 0.302448 0.660364
vt 0.059316 0.511443
vt 0.009274 0.511804
vt 0.008782 0.443564
vt 0.058825 0.443204
vt 0.187727 0.476767
vt 0.303962 0.443204
vt 0.311145 0.725917
vt 0.191458 0.716264
vt 0.464630 0.662563
vt 0.459170 0.622736
vt 0.499550 0.616631
vt 0.500038 0.656821
vt 0.377930 0.526788
vt 0.396262 0.573506
vt 0.067032 0.657831
vt 0.059936 0.705778
vt 0.052021 0.671731
vt 0.052512 0.639381
vt 0.377930 0.620224
vt 0.067032 0.560450
vt 0.061163 0.609357
vt 0.051451 0.609397
vt 0.052474 0.578797
vt 0.356800 0.481185
vt 0.060427 0.774018
vt 0.010385 0.774379
vt 0.009893 0.706139
vt 0.536258 0.662646
vt 0.541762 0.622111
vt 0.590720 0.625578
vt 0.572459 0.666386
vt 0.187727 0.670244
vt 0.213943 0.637602
vt 0.443289 0.716264
vt 0.323602 0.725917
vt 0.299740 0.917149
vt 0.311145 0.943813
vt 0.211601 0.962360
vt 0.216575 0.920676
vt 0.335007 0.917149
vt 0.418172 0.920676
vt 0.467774 0.484310
vt 0.432886 0.487593
vt 0.445298 0.454021
vt 0.474171 0.443204
vt 0.054353 0.847029
vt 0.059112 0.800568
vt 0.092895 0.807830
vt 0.109259 0.852619
vt 0.533731 0.484613
vt 0.500781 0.494374
vt 0.500947 0.458455
vt 0.527813 0.443606
vt 0.194078 0.852587
vt 0.290959 0.856880
vt 0.288493 0.890418
vt 0.221250 0.873549
vt 0.016735 0.638785
vt 0.017759 0.608186
vt 0.016697 0.578201
vt 0.017189 0.545851
vt 0.051867 0.546806
vt 0.017343 0.670776
vt 0.002177 0.559752
vt 0.002177 0.657133
vt 0.008046 0.608225
vt 0.323602 0.943813
vt 0.423146 0.962360
vt 0.410820 0.626395
vt 0.408718 0.577428
vt 0.429058 0.666386
vt 0.059112 0.982290
vt 0.092895 0.975028
vt 0.419890 0.534625
vt 0.568329 0.488229
vt 0.556407 0.454731
vt 0.039067 0.891429
vt 0.014072 0.839885
vt 0.002177 0.996022
vt 0.014072 0.942972
vt 0.002177 0.786835
s 0
usemtl Material
f 33/1/1 14/2/1 4/3/1 21/4/1
f 70/5/2 61/6/2 8/7/2 23/8/2
f 31/9/3 16/10/3 6/11/3 25/12/3
f 56/13/4 48/14/4 2/15/4 20/16/4
f 66/17/5 15/18/5 5/19/5 62/20/5
f 52/21/6 14/22/6 2/15/6 48/14/6
f 65/23/7 17/24/7 12/25/7 64/26/7
f 51/27/5 18/28/5 11/29/5 50/30/5
f 68/31/8 64/26/8 12/25/8 27/32/8
f 54/33/9 49/34/9 10/35/9 29/36/9
f 47/37/5 9/38/5 18/28/5 51/27/5
f 77/39/10 76/40/10 35/41/10 36/42/10
f 82/43/11 75/44/11 40/45/11 58/46/11
f 63/47/5 7/48/5 15/18/5 66/17/5
f 23/49/12 8/50/12 16/51/12 31/52/12
f 20/16/13 2/15/13 14/22/13 33/53/13
f 1/54/14 19/55/14 34/56/14 13/57/14
f 19/58/15 20/59/15 33/60/15 34/61/15
f 7/48/16 24/62/16 32/63/16 15/18/16
f 24/64/17 23/49/17 31/52/17 32/65/17
f 47/66/18 53/67/18 30/68/18 9/69/18
f 53/67/19 54/33/19 29/36/19 30/68/19
f 62/20/20 67/70/20 28/71/20 11/29/20
f 67/72/21 26/73/21 44/74/21 73/75/21
f 50/30/22 55/76/22 19/55/22 1/54/22
f 55/77/23 28/78/23 46/79/23 59/80/23
f 15/18/24 32/63/24 26/81/24 5/19/24
f 32/82/25 31/83/25 25/84/25 26/73/25
f 63/85/26 69/86/26 24/87/26 7/88/26
f 69/86/27 70/5/27 23/8/27 24/87/27
f 13/57/28 34/56/28 22/89/28 3/90/28
f 34/91/29 33/1/29 21/4/29 22/92/29
f 71/93/30 37/94/30 40/95/30 72/96/30
f 57/97/31 36/42/31 35/41/31 58/98/31
f 81/99/32 77/100/32 36/101/32 57/102/32
f 84/103/33 79/104/33 39/105/33 72/106/33
f 83/107/34 78/108/34 37/109/34 71/110/34
f 79/111/35 80/112/35 38/113/35 39/114/35
f 73/75/36 74/115/36 45/116/36 46/79/36
f 59/80/37 60/117/37 42/118/37 41/119/37
f 26/73/38 25/84/38 43/120/38 44/74/38
f 56/121/39 20/59/39 42/118/39 60/117/39
f 20/59/40 19/58/40 41/119/40 42/118/40
f 68/122/41 27/123/41 45/116/41 74/115/41
f 27/123/42 56/121/42 60/117/42 45/116/42
f 46/79/43 45/116/43 60/117/43 59/80/43
f 78/108/44 81/99/44 57/102/44 37/109/44
f 37/124/45 57/97/45 58/98/45 40/125/45
f 19/58/46 55/77/46 59/80/46 41/119/46
f 11/29/47 28/71/47 55/76/47 50/30/47
f 22/126/19 21/127/19 54/33/19 53/67/19
f 3/128/48 22/126/48 53/67/48 47/66/48
f 76/129/49 82/43/49 58/46/49 35/130/49
f 3/90/5 47/37/5 51/27/5 13/57/5
f 21/127/9 4/131/9 49/34/9 54/33/9
f 13/57/5 51/27/5 50/30/5 1/54/5
f 17/24/50 52/21/50 48/14/50 12/25/50
f 27/32/51 12/25/51 48/14/51 56/13/51
f 25/84/52 68/122/52 74/115/52 43/120/52
f 44/74/53 43/120/53 74/115/53 73/75/53
f 80/132/54 83/107/54 71/110/54 38/133/54
f 75/44/55 84/103/55 72/106/55 40/45/55
f 38/113/56 71/93/56 72/96/56 39/114/56
f 30/68/27 29/36/27 70/5/27 69/86/27
f 9/69/57 30/68/57 69/86/57 63/85/57
f 28/78/58 67/72/58 73/75/58 46/79/58
f 5/19/59 26/81/59 67/70/59 62/20/59
f 9/38/5 63/47/5 66/17/5 18/28/5
f 25/12/60 6/11/60 64/26/60 68/31/60
f 16/10/61 65/23/61 64/26/61 6/11/61
f 18/28/5 66/17/5 62/20/5 11/29/5
f 29/36/2 10/35/2 61/6/2 70/5/2
f 17/134/62 65/135/62 84/103/62 75/44/62
f 8/7/63 61/6/63 83/107/63 80/132/63
f 14/136/64 52/137/64 82/43/64 76/129/64
f 10/35/65 49/34/65 81/99/65 78/108/65
f 16/51/66 8/50/66 80/112/66 79/111/66
f 61/6/67 10/35/67 78/108/67 83/107/67
f 65/135/68 16/138/68 79/104/68 84/103/68
f 49/34/69 4/131/69 77/100/69 81/99/69
f 52/137/70 17/134/70 75/44/70 82/43/70
f 4/3/71 14/2/71 76/40/71 77/39/71
